<svg viewBox="0 0 172 172" fill="none" xmlns="http://www.w3.org/2000/svg">
<path d="M85.8999 171.4C133.12 171.4 171.4 133.121 171.4 85.9004C171.4 38.68 133.12 0.400391 85.8999 0.400391C38.6796 0.400391 0.399902 38.68 0.399902 85.9004C0.399902 133.121 38.6796 171.4 85.8999 171.4Z" fill="#FF4500"/>
<path d="M142.9 85.9002C142.9 79.0002 137.3 73.4002 130.4 73.4002C127 73.4002 124 74.7002 121.8 76.9002C113.3 70.8002 101.5 66.8002 88.5001 66.3002L94.2001 39.6002L112.7 43.5002C112.9 48.2002 116.8 52.0002 121.6 52.0002C126.5 52.0002 130.5 48.0002 130.5 43.1002C130.5 38.2002 126.5 34.2002 121.6 34.2002C118.1 34.2002 115.1 36.2002 113.7 39.2002L93.0001 34.8002C92.4001 34.7002 91.8001 34.8002 91.3001 35.1002C90.8001 35.4002 90.5001 35.9002 90.3001 36.5002L84.0001 66.3002C70.7001 66.7002 58.8001 70.6002 50.2001 76.9002C48.0001 74.8002 44.9001 73.4002 41.6001 73.4002C34.7001 73.4002 29.1001 79.0002 29.1001 85.9002C29.1001 91.0002 32.1001 95.3002 36.5001 97.3002C36.3001 98.5002 36.2001 99.8002 36.2001 101.1C36.2001 120.3 58.5001 135.8 86.1001 135.8C113.7 135.8 136 120.3 136 101.1C136 99.8002 135.9 98.6002 135.7 97.4002C139.8 95.4002 142.9 91.0002 142.9 85.9002ZM57.4001 94.8002C57.4001 89.9002 61.4001 85.9002 66.3001 85.9002C71.2001 85.9002 75.2001 89.9002 75.2001 94.8002C75.2001 99.7002 71.2001 103.7 66.3001 103.7C61.4001 103.7 57.4001 99.7002 57.4001 94.8002ZM107.1 118.3C101 124.4 89.4001 124.8 86.0001 124.8C82.6001 124.8 70.9001 124.3 64.9001 118.3C64.0001 117.4 64.0001 115.9 64.9001 115C65.8001 114.1 67.3001 114.1 68.2001 115C72.0001 118.8 80.2001 120.2 86.1001 120.2C92.0001 120.2 100.1 118.8 104 115C104.9 114.1 106.4 114.1 107.3 115C108 116 108 117.4 107.1 118.3ZM105.5 103.7C100.6 103.7 96.6001 99.7002 96.6001 94.8002C96.6001 89.9002 100.6 85.9002 105.5 85.9002C110.4 85.9002 114.4 89.9002 114.4 94.8002C114.4 99.7002 110.4 103.7 105.5 103.7Z" fill="white"/>
</svg>
